<svg xmlns="http://www.w3.org/2000/svg" width="633" height="394" viewBox="0 0 633 394" version="1.1"><path d="M 167.030 2.024 C 124.673 8.558, 89.230 26.743, 57.973 57.980 C 26.982 88.951, 8.547 125.430, 2.374 168 C 0.156 183.297, 0.156 210.703, 2.374 226 C 8.853 270.683, 30.682 311.752, 64.066 342.066 C 95.748 370.834, 128.978 386.456, 171.280 392.468 C 191.500 395.342, 220.954 394.088, 242.500 389.437 C 263.418 384.921, 289.912 373.405, 308.500 360.748 C 339.343 339.746, 364.597 309.694, 379.127 276.705 C 383.550 266.661, 383.676 266, 381.169 266 C 379.297 266, 378.781 266.797, 375.018 275.500 C 373.829 278.250, 372.360 281.400, 371.753 282.500 C 371.146 283.600, 369.446 286.750, 367.976 289.500 C 359.191 305.928, 349.561 318.634, 334.592 333.549 C 315.395 352.677, 299.320 363.594, 273.500 375.037 C 266.296 378.230, 264.849 378.768, 261.500 379.499 C 259.850 379.860, 257.150 380.746, 255.500 381.470 C 247.824 384.837, 228.591 388.553, 211.250 390.020 C 182.945 392.414, 149.990 386.848, 122.500 375.031 C 80.035 356.775, 45.713 324.769, 24.994 284.106 C 22.797 279.795, 21 275.900, 21 275.450 C 21 275, 20.149 272.802, 19.109 270.566 C 14.574 260.814, 9.188 242.027, 6.475 226.500 C 2.454 203.484, 3.923 172.941, 10.177 149.500 C 12.470 140.904, 16.364 129.254, 18.627 124.220 C 19.932 121.317, 21 118.669, 21 118.336 C 21 117.233, 28.924 102.160, 33.122 95.278 C 50.251 67.199, 79.649 40.113, 109.078 25.295 C 134.807 12.340, 156.090 6.366, 185.100 3.958 C 233.819 -0.088, 288.041 18.230, 325.040 51.234 C 348.717 72.354, 362.881 91.613, 376.165 120.750 C 378.450 125.762, 380.015 128, 381.235 128 C 383.402 128, 383.426 127.289, 381.422 122.372 C 375.177 107.054, 363.854 87.859, 353.183 74.500 C 323.073 36.807, 280.852 11.383, 234.084 2.785 C 218.067 -0.160, 183.715 -0.550, 167.030 2.024 M 204.667 233.667 C 203.149 235.185, 204.147 237, 206.500 237 C 208.333 237, 209 236.467, 209 235 C 209 233.049, 206.159 232.175, 204.667 233.667 M 277 235 C 277 236.333, 277.667 237, 279 237 C 280.333 237, 281 236.333, 281 235 C 281 233.667, 280.333 233, 279 233 C 277.667 233, 277 233.667, 277 235 M 327 235 C 327 236.333, 327.667 237, 329 237 C 330.333 237, 331 236.333, 331 235 C 331 233.667, 330.333 233, 329 233 C 327.667 233, 327 233.667, 327 235 M 395.564 235.250 C 392.792 248.411, 392.893 250.303, 396.341 249.803 C 398.177 249.536, 398.440 248.779, 398.533 243.500 C 398.591 240.200, 398.975 236.488, 399.387 235.250 C 400 233.405, 399.766 233, 398.086 233 C 396.769 233, 395.869 233.803, 395.564 235.250 M 432 235 C 432 236.333, 432.667 237, 434 237 C 435.333 237, 436 236.333, 436 235 C 436 233.667, 435.333 233, 434 233 C 432.667 233, 432 233.667, 432 235 M 450.667 233.667 C 449.125 235.208, 450.083 237.127, 452.240 236.820 C 455.071 236.416, 455.965 233, 453.240 233 C 452.191 233, 451.033 233.300, 450.667 233.667 M 457.514 234.250 C 457.282 234.938, 456.623 238.157, 456.051 241.404 C 454.855 248.191, 455.680 250, 459.967 250 C 463.488 250, 466.150 247.001, 466.345 242.816 C 466.482 239.896, 466.171 239.462, 463.750 239.184 C 461.447 238.919, 461 238.390, 461 235.934 C 461 232.938, 458.385 231.675, 457.514 234.250 M 469.446 234.087 C 468.501 235.616, 470.552 237.386, 472.433 236.664 C 473.295 236.333, 474 235.374, 474 234.531 C 474 232.784, 470.465 232.439, 469.446 234.087 M 476.564 235.250 C 473.792 248.411, 473.893 250.303, 477.341 249.803 C 479.177 249.536, 479.440 248.779, 479.533 243.500 C 479.591 240.200, 479.975 236.488, 480.387 235.250 C 481 233.405, 480.766 233, 479.086 233 C 477.769 233, 476.869 233.803, 476.564 235.250 M 483.667 233.667 C 482.125 235.208, 483.083 237.127, 485.240 236.820 C 488.071 236.416, 488.965 233, 486.240 233 C 485.191 233, 484.033 233.300, 483.667 233.667 M 194.392 235.979 C 192.258 236.841, 191 240.580, 191 246.058 C 191 251.021, 198.594 251.382, 200.807 246.524 C 201.819 244.303, 201.727 244, 200.038 244 C 198.982 244, 197.840 244.450, 197.500 245 C 196.455 246.691, 195 246.109, 195 244 C 195 242.381, 195.667 242, 198.500 242 C 200.944 242, 202 241.548, 202 240.500 C 202 239.493, 200.993 239, 198.933 239 C 196.320 239, 195.959 238.703, 196.500 237 C 196.849 235.900, 196.992 235.029, 196.817 235.063 C 196.643 235.098, 195.551 235.510, 194.392 235.979 M 253.483 241.250 C 253.042 244.688, 252.640 249.525, 252.590 252 C 252.503 256.340, 252.612 256.511, 255.654 256.806 C 258.018 257.036, 259.208 256.541, 260.404 254.834 C 262.433 251.937, 262.451 247.089, 260.443 244.223 C 258.986 242.142, 259.018 242, 260.943 242 C 262.105 242, 263 241.347, 263 240.500 C 263 239.556, 262.048 239, 260.433 239 C 258.320 239, 257.978 238.645, 258.500 237 C 259.016 235.375, 258.680 235, 256.710 235 C 254.487 235, 254.218 235.522, 253.483 241.250 M 491.152 236.848 C 488.820 239.180, 487.504 246.698, 489.093 248.612 C 490.904 250.794, 495.663 250.319, 497.443 247.777 C 499.505 244.835, 499.407 244, 497 244 C 495.900 244, 495 244.450, 495 245 C 495 245.550, 494.325 246, 493.500 246 C 491.817 246, 491.749 245.817, 492.607 243.582 C 492.967 242.644, 494.391 242, 496.107 242 C 498.012 242, 499 241.488, 499 240.500 C 499 239.511, 498.010 239, 496.094 239 C 493.680 239, 493.276 238.661, 493.710 237 C 494.362 234.507, 493.542 234.458, 491.152 236.848 M 123.706 240.323 C 123.406 241.104, 122.875 243.939, 122.526 246.622 C 122.177 249.305, 121.682 252.512, 121.426 253.750 C 121.071 255.470, 121.419 256, 122.901 256 C 124.244 256, 125.044 255.076, 125.500 253 C 125.999 250.728, 126.717 250, 128.457 250 C 131.578 250, 133.253 247.700, 133.388 243.232 L 133.500 239.500 128.876 239.200 C 125.589 238.987, 124.094 239.312, 123.706 240.323 M 135.650 242.701 C 134.643 248.792, 134.845 250, 136.872 250 C 138.300 250, 138.905 248.996, 139.421 245.770 C 139.869 242.967, 140.374 241.988, 140.918 242.868 C 142.133 244.834, 145.500 243.818, 145.500 241.486 C 145.500 239.835, 144.722 239.450, 140.889 239.201 L 136.278 238.902 135.650 242.701 M 147.709 239.697 C 146.326 242.039, 145.931 247.212, 147.034 248.541 C 150.515 252.735, 157.507 248.288, 156.823 242.315 C 156.533 239.790, 156.071 239.469, 152.342 239.197 C 150.055 239.030, 147.970 239.255, 147.709 239.697 M 159.658 240.741 C 159.392 241.708, 158.890 244.188, 158.542 246.250 C 157.990 249.522, 158.159 250, 159.867 250 C 161.371 250, 161.981 249.074, 162.500 246 C 162.919 243.522, 163.718 242, 164.600 242 C 165.701 242, 165.879 242.907, 165.384 246 C 164.806 249.614, 164.950 250, 166.872 250 C 168.456 250, 169 249.382, 169 247.582 C 169 241.552, 171.713 239.994, 172.190 245.750 C 172.435 248.718, 172.953 249.564, 174.672 249.809 C 176.686 250.096, 176.830 249.734, 176.653 244.809 L 176.463 239.500 168.302 239.241 C 161.232 239.017, 160.076 239.217, 159.658 240.741 M 180.260 240.250 C 178.513 242.469, 177.855 247.120, 179.079 248.596 C 180.327 250.099, 184.733 250.457, 186.687 249.214 C 188.449 248.094, 190.137 243.008, 189.458 240.868 C 189.016 239.475, 187.897 239, 185.055 239 C 182.959 239, 180.802 239.563, 180.260 240.250 M 203.453 242.400 C 202.548 247.225, 203.202 249.500, 205.496 249.500 C 207.191 249.500, 207.480 248.769, 207.574 244.250 C 207.665 239.825, 207.400 239, 205.887 239 C 204.636 239, 203.897 240.032, 203.453 242.400 M 210.552 240.250 C 210.340 240.938, 209.899 243.412, 209.572 245.750 C 209.049 249.484, 209.210 250, 210.900 250 C 212.366 250, 212.985 249.046, 213.500 246 C 213.872 243.800, 214.586 242, 215.088 242 C 215.590 242, 216 243.800, 216 246 C 216 249.651, 216.229 250, 218.625 250 C 221.032 250, 221.198 249.740, 220.625 246.875 C 220.281 245.156, 220 242.681, 220 241.375 C 220 239.224, 219.572 239, 215.469 239 C 212.716 239, 210.786 239.491, 210.552 240.250 M 222.999 241.502 C 222.476 242.879, 222.150 246.591, 222.274 249.752 C 222.478 254.945, 222.727 255.532, 224.848 255.832 C 228.231 256.311, 231.642 252.648, 232.430 247.686 C 232.796 245.384, 233.348 242.488, 233.656 241.250 C 234.183 239.136, 233.906 239, 229.084 239 C 224.527 239, 223.844 239.281, 222.999 241.502 M 239.979 243.076 C 238.528 248.466, 239.689 249.769, 245.940 249.769 C 249.886 249.769, 250.922 249.406, 251.320 247.885 C 251.591 246.848, 251.384 246, 250.861 246 C 250.315 246, 250.189 244.508, 250.566 242.500 L 251.223 239 246.150 239 L 241.077 239 239.979 243.076 M 264.329 244.548 C 263.364 249.871, 263.408 250.085, 265.412 249.798 C 266.941 249.580, 267.634 248.584, 268 246.079 C 268.275 244.198, 269.125 242.452, 269.889 242.200 C 270.732 241.921, 271.004 242.185, 270.580 242.870 C 270.148 243.570, 270.665 244, 271.941 244 C 273.471 244, 274 243.357, 274 241.500 C 274 239.218, 273.622 239, 269.667 239 L 265.334 239 264.329 244.548 M 275.553 243.497 C 275.182 245.970, 275.157 248.445, 275.498 248.997 C 276.506 250.628, 279.731 250.142, 280.460 248.250 C 281.102 246.583, 281.181 246.583, 282.117 248.250 C 283.351 250.449, 288.302 250.555, 290.429 248.429 C 292.920 245.938, 292.337 244.683, 289 245.350 C 286.477 245.855, 286 245.636, 286 243.975 C 286 241.856, 288.574 241.222, 289.227 243.180 C 289.845 245.036, 293.192 243.239, 292.816 241.253 C 292.582 240.019, 291.354 239.407, 288.672 239.185 C 284.219 238.818, 282 240.294, 282 243.622 C 282 245.100, 281.415 246, 280.455 246 C 279.230 246, 279.046 245.273, 279.566 242.500 C 280.138 239.449, 279.966 239, 278.225 239 C 276.624 239, 276.093 239.893, 275.553 243.497 M 295.238 240.250 C 294.684 240.938, 293.934 242.891, 293.571 244.591 C 292.723 248.562, 294.184 249.721, 300.107 249.774 L 304.714 249.815 304.714 244.407 L 304.714 239 300.480 239 C 298.151 239, 295.792 239.563, 295.238 240.250 M 307.567 242.700 C 307.197 244.790, 306.662 247.287, 306.379 248.250 C 306.013 249.498, 306.430 250, 307.833 250 C 309.276 250, 310.033 249.019, 310.670 246.327 C 311.831 241.419, 313.500 241.078, 313.500 245.749 C 313.500 248.809, 313.891 249.556, 315.620 249.802 C 317.066 250.009, 317.910 249.453, 318.276 248.052 C 318.571 246.924, 318.403 246, 317.903 246 C 317.402 246, 317.107 244.537, 317.246 242.750 C 317.496 239.552, 317.426 239.495, 312.871 239.200 L 308.241 238.900 307.567 242.700 M 325 245.500 C 324.325 249.075, 323.374 252, 322.887 252 C 322.399 252, 322 252.900, 322 254 C 322 256.295, 325.125 256.759, 326.821 254.716 C 327.677 253.684, 329.961 242.909, 329.992 239.750 C 329.997 239.338, 329.151 239, 328.113 239 C 326.584 239, 325.994 240.230, 325 245.500 M 332.301 240.200 C 330.518 242.460, 329.842 247.105, 331.079 248.596 C 332.551 250.368, 337.055 250.411, 339.429 248.675 C 340.593 247.824, 341.287 245.947, 341.370 243.425 C 341.499 239.523, 341.476 239.498, 337.414 239.200 C 334.929 239.018, 332.925 239.410, 332.301 240.200 M 343.458 243.429 C 343.093 245.865, 343.092 248.340, 343.456 248.929 C 344.305 250.303, 347.685 250.318, 348.530 248.951 C 348.975 248.232, 349.610 248.261, 350.555 249.046 C 353.163 251.210, 354.500 249.545, 354.500 244.132 C 354.500 239.503, 354.280 238.963, 352.500 239.216 C 351.050 239.422, 350.414 240.393, 350.187 242.750 C 350 244.687, 349.318 246, 348.500 246 C 347.488 246, 347.276 245.077, 347.694 242.500 C 348.190 239.444, 347.999 239, 346.192 239 C 344.511 239, 343.998 239.831, 343.458 243.429 M 357.656 239.750 C 357.402 240.162, 356.875 242.637, 356.484 245.250 C 355.839 249.561, 355.957 250, 357.759 250 C 359.302 250, 359.887 249.109, 360.384 246 C 360.736 243.800, 361.468 242, 362.012 242 C 362.555 242, 363 242.450, 363 243 C 363 243.550, 363.900 244, 365 244 C 366.467 244, 367 243.333, 367 241.500 C 367 239.209, 366.629 239, 362.559 239 C 360.116 239, 357.910 239.338, 357.656 239.750 M 368.688 239.699 C 368.417 240.140, 367.875 242.637, 367.484 245.250 C 366.827 249.635, 366.934 250, 368.875 250 C 370.553 250, 371.105 249.195, 371.616 246 C 371.968 243.800, 372.704 242, 373.253 242 C 373.816 242, 374.002 243.242, 373.679 244.854 C 373.056 247.971, 374.414 250, 377.125 250 C 378.572 250, 378.808 249.155, 378.589 244.750 L 378.328 239.500 373.755 239.199 C 371.239 239.033, 368.959 239.258, 368.688 239.699 M 380.927 241.691 C 380.365 243.171, 380.038 245.534, 380.202 246.941 C 380.480 249.324, 380.886 249.511, 386.110 249.662 L 391.721 249.823 391.643 244.412 L 391.564 239 386.757 239 C 382.459 239, 381.842 239.285, 380.927 241.691 M 401.667 239.667 C 400.525 240.808, 400.936 244.808, 402.250 245.338 C 402.997 245.639, 402.795 245.874, 401.750 245.921 C 399.084 246.041, 399.664 248.878, 402.500 249.589 C 408.097 250.994, 413.175 247.063, 409.363 244.276 C 407.753 243.099, 407.749 243, 409.309 243 C 410.333 243, 411 242.212, 411 241 C 411 239.308, 410.333 239, 406.667 239 C 404.283 239, 402.033 239.300, 401.667 239.667 M 417.697 243.226 C 417.377 245.609, 417.591 248.007, 418.187 248.726 C 421.269 252.439, 429 247.663, 429 242.045 C 429 239.667, 428.562 239, 427 239 C 425.695 239, 425 239.667, 425 240.918 C 425 243.641, 423.961 246, 422.762 246 C 422.151 246, 421.967 244.591, 422.306 242.500 C 422.818 239.348, 422.645 239, 420.569 239 C 418.615 239, 418.177 239.644, 417.697 243.226 M 430.630 241.250 C 428.867 247.831, 431.043 251.703, 435.086 249.178 C 436.245 248.454, 437.127 248.397, 437.513 249.020 C 438.418 250.485, 443.346 250.202, 445.559 248.559 C 447.111 247.406, 447.278 246.755, 446.394 245.313 C 445.531 243.906, 445.641 243.249, 446.894 242.322 C 449.455 240.429, 446.897 238.827, 441.886 239.186 C 437.936 239.469, 437.469 239.774, 437.184 242.250 C 436.931 244.442, 437.275 245, 438.875 245 C 439.979 245, 441.096 245.346, 441.357 245.768 C 441.618 246.191, 440.105 246.372, 437.995 246.171 C 434.239 245.813, 434.169 245.732, 434.710 242.402 C 435.184 239.476, 434.980 239, 433.247 239 C 432.004 239, 431.003 239.861, 430.630 241.250 M 449.550 240.250 C 448.674 243.074, 448.238 247.457, 448.710 248.687 C 448.987 249.409, 450.229 250, 451.469 250 C 453.545 250, 453.717 249.564, 453.644 244.500 C 453.577 239.884, 453.273 239, 451.751 239 C 450.753 239, 449.763 239.563, 449.550 240.250 M 468.550 241.250 C 467.154 247.687, 467.779 250, 470.916 250 C 472.429 250, 472.714 249.128, 472.714 244.500 C 472.714 239.828, 472.438 239, 470.876 239 C 469.781 239, 468.841 239.910, 468.550 241.250 M 482.463 240.250 C 482.202 240.938, 481.879 243.300, 481.744 245.500 C 481.520 249.165, 481.709 249.500, 484 249.500 C 485.746 249.500, 486.475 248.972, 486.417 247.750 C 486.371 246.787, 486.258 244.425, 486.167 242.500 C 486 238.993, 483.513 237.483, 482.463 240.250 M 500.814 241.750 C 500.528 245.969, 500.109 250.303, 499.789 252.362 C 499.363 255.107, 502.295 256.634, 505.697 255.439 C 508.715 254.379, 510.285 250.941, 511.267 243.250 C 511.730 239.625, 511.545 239, 510.012 239 C 508.117 239, 507 240.884, 507 244.082 C 507 245.137, 506.550 246, 506 246 C 505.450 246, 505 244.425, 505 242.500 C 505 239.667, 504.619 239, 503 239 C 501.530 239, 500.951 239.729, 500.814 241.750 M 127.345 243.543 C 126.535 245.653, 127.887 246.793, 129.039 244.971 C 130.263 243.035, 130.239 242, 128.969 242 C 128.401 242, 127.671 242.694, 127.345 243.543 M 150.667 242.667 C 149.449 243.885, 149.978 246, 151.500 246 C 152.333 246, 153 245.111, 153 244 C 153 242.008, 151.934 241.399, 150.667 242.667 M 182.710 244 C 182.370 245.300, 182.680 246, 183.594 246 C 184.367 246, 185 245.100, 185 244 C 185 242.900, 184.602 242, 184.117 242 C 183.631 242, 182.998 242.900, 182.710 244 M 226.710 244 C 226.370 245.300, 226.680 246, 227.594 246 C 228.367 246, 229 245.100, 229 244 C 229 242.900, 228.602 242, 228.117 242 C 227.631 242, 226.998 242.900, 226.710 244 M 243.710 244 C 243.387 245.237, 243.680 246, 244.477 246 C 245.186 246, 246.002 245.100, 246.290 244 C 246.613 242.763, 246.320 242, 245.523 242 C 244.814 242, 243.998 242.900, 243.710 244 M 298 244 C 298 245.100, 298.398 246, 298.883 246 C 299.369 246, 300.002 245.100, 300.290 244 C 300.630 242.700, 300.320 242, 299.406 242 C 298.633 242, 298 242.900, 298 244 M 335 244 C 335 245.100, 335.402 246, 335.893 246 C 337.017 246, 338.066 243.399, 337.264 242.598 C 336.061 241.394, 335 242.051, 335 244 M 384.710 244 C 384.370 245.300, 384.680 246, 385.594 246 C 386.367 246, 387 245.100, 387 244 C 387 242.900, 386.602 242, 386.117 242 C 385.631 242, 384.998 242.900, 384.710 244 M 460 244 C 460 245.100, 460.450 246, 461 246 C 461.550 246, 462 245.100, 462 244 C 462 242.900, 461.550 242, 461 242 C 460.450 242, 460 242.900, 460 244 M 256.750 246.332 C 255.556 249.248, 255.799 254.601, 257.068 253.332 C 257.656 252.744, 257.993 250.517, 257.818 248.382 C 257.583 245.515, 257.304 244.979, 256.750 246.332" stroke="none" fill="#040d33" fill-rule="evenodd"/><path d="M 202.966 139.250 C 200.029 140.733, 197.745 142.864, 196.271 145.500 C 194.088 149.401, 194.032 150.272, 194.016 180.628 C 193.999 214.588, 193.980 214.477, 199.690 213.822 L 202.500 213.500 202.770 192.250 L 203.040 171 213.897 171 C 225.834 171, 227.761 170.167, 226.593 165.513 C 225.964 163.009, 225.918 163, 214.344 163 L 202.726 163 203.265 156.282 C 203.995 147.191, 206.370 145, 215.497 145 C 219.009 145, 222.160 145.450, 222.500 146 C 224.384 149.049, 229.746 145.108, 228.419 141.650 C 226.544 136.764, 210.828 135.282, 202.966 139.250 M 283.807 139.750 C 281.166 142.826, 280.881 143.908, 282.103 146.229 C 283.605 149.081, 284.919 149.965, 287.679 149.985 C 290.664 150.006, 293 147.415, 293 144.084 C 293 138.913, 286.968 136.070, 283.807 139.750 M 146.570 143.896 C 145.313 144.389, 143.460 147.762, 141.254 153.576 C 133.549 173.885, 131.612 179.079, 127.298 191 C 121.090 208.156, 120.473 210.660, 122.001 212.501 C 122.685 213.325, 124.707 214, 126.494 214 C 129.704 214, 129.781 213.888, 132.817 204.750 L 135.890 195.500 151.195 195.500 L 166.500 195.500 169.273 203.425 C 172.580 212.877, 173.400 214, 177 214 C 182.558 214, 182.464 212.568, 175.621 192.888 C 160.976 150.773, 158.960 145.793, 155.940 144.265 C 153.230 142.893, 149.506 142.747, 146.570 143.896 M 326.503 144.250 C 326.264 144.938, 325.940 158.027, 325.784 173.338 L 325.500 201.176 322.694 203.588 C 319.620 206.231, 312.578 206.915, 308.870 204.931 C 304.440 202.560, 301.934 209.664, 306.250 212.359 C 311.681 215.750, 322.379 215.042, 328.485 210.886 C 334.797 206.590, 335 205.432, 335 173.634 C 335 146.417, 334.909 145.022, 333.066 144.035 C 330.424 142.622, 327.030 142.733, 326.503 144.250 M 151.030 152.004 C 151.014 152.281, 149.378 157.006, 147.395 162.504 C 145.412 168.002, 142.975 174.975, 141.980 178 C 140.985 181.025, 139.859 184.287, 139.479 185.250 C 138.842 186.858, 139.765 187, 150.893 187 C 160.453 187, 163 186.713, 163 185.636 C 163 184.885, 161.388 179.598, 159.417 173.886 C 157.447 168.174, 155.217 161.584, 154.463 159.243 C 153.181 155.263, 151.099 150.872, 151.030 152.004 M 253.500 159.676 C 249.147 160.643, 243.386 163.266, 241.250 165.254 C 239.047 167.305, 239 167.813, 239 189.552 C 239 213.792, 239.156 214.457, 244.690 213.822 L 247.500 213.500 247.769 191.841 L 248.038 170.182 251.269 168.949 C 253.046 168.270, 258.325 167.442, 263 167.108 C 271.258 166.517, 271.509 166.425, 271.805 163.867 C 272.058 161.686, 271.560 161.042, 268.906 160.117 C 265.776 159.026, 257.495 158.789, 253.500 159.676 M 368.365 159.953 C 362.132 161.439, 355.294 167.928, 352.589 174.923 C 350.063 181.451, 350.309 193.522, 353.098 200.006 C 356.809 208.634, 366.746 215, 376.500 215 C 382.034 215, 389.988 212.006, 393.940 208.435 C 405.280 198.190, 405.224 175.497, 393.833 165.069 C 388.246 159.954, 377.450 157.785, 368.365 159.953 M 491.296 160.432 C 488.433 161.125, 484.496 162.910, 482.546 164.397 L 479 167.102 479 189.428 C 479 213.803, 479.153 214.457, 484.690 213.822 L 487.500 213.500 488 192.012 L 488.500 170.524 491.500 169.053 C 493.150 168.243, 498.325 167.338, 503 167.040 C 510.740 166.548, 511.527 166.308, 511.807 164.347 C 512.517 159.364, 503.108 157.568, 491.296 160.432 M 283.714 160.619 C 283.321 161.012, 283 172.678, 283 186.544 C 283 214.056, 283.085 214.465, 288.690 213.822 L 291.500 213.500 291.500 187 L 291.500 160.500 287.964 160.202 C 286.020 160.039, 284.107 160.226, 283.714 160.619 M 416.332 161.577 C 415.999 162.445, 415.944 171.821, 416.210 182.414 C 416.625 198.914, 416.963 202.130, 418.576 204.859 C 422.706 211.850, 433.070 215.800, 444.225 214.634 C 451.071 213.919, 459.668 210.489, 461.040 207.925 C 461.570 206.936, 462 196.297, 462 184.188 C 462 160.231, 461.837 159.544, 456.310 160.178 L 453.500 160.500 453.231 182.098 L 452.962 203.696 450.278 204.919 C 445.379 207.151, 438.371 207.413, 433.486 205.548 C 426.493 202.877, 426 201.199, 426 180.085 C 426 163.298, 425.868 162, 424.066 161.035 C 421.178 159.490, 417.021 159.781, 416.332 161.577 M 369 168.446 C 360.684 172.988, 357.494 187.077, 362.397 197.606 C 364.295 201.683, 365.668 203.145, 369.203 204.856 C 374.752 207.542, 378.212 207.560, 383.647 204.929 C 390.285 201.715, 392.402 197.418, 392.456 187.049 C 392.506 177.270, 390.776 173.114, 385.048 169.253 C 381.164 166.636, 373.060 166.228, 369 168.446" stroke="none" fill="#9c0709" fill-rule="evenodd"/></svg>